<svg width="622" height="39" viewBox="0 0 622 39" fill="none" xmlns="http://www.w3.org/2000/svg">
<path d="M321.333 17.4323C320.627 10.5259 316.988 5.54481 310.859 2.45371C305.719 -0.142816 300.243 -0.566739 294.679 0.828673C288.373 2.41839 283.675 6.07472 281.061 12.1333C279.895 14.8534 279.542 17.7325 279.683 20.6823C279.824 23.7204 280.601 26.5642 282.138 29.1784C285.123 34.2125 289.628 37.127 295.262 38.4341C296.287 38.6814 297.346 38.805 298.389 38.9993C299.802 38.9993 301.215 38.9993 302.628 38.9993C303.423 38.858 304.217 38.7344 305.012 38.593C309.534 37.7452 313.473 35.7846 316.6 32.3579C320.503 28.101 321.916 23.0492 321.333 17.4323ZM315.363 27.1118C312.731 33.0467 308.209 36.4734 301.674 36.9857C292.736 37.6745 285.759 31.1567 284.593 22.8902C284.434 21.7598 284.364 20.6293 284.24 19.4989C284.328 15.2067 285.406 11.2324 288.179 7.87639C291.111 4.32604 294.874 2.34773 299.501 2.06512C304.394 1.76484 308.616 3.33688 312.042 6.83425C314.833 9.67806 316.299 13.1931 316.706 17.1497C317.041 20.5763 316.776 23.9501 315.363 27.1118Z" fill="#212121"/>
<path d="M355.477 0.0353269C355.318 0.123644 355.177 0.247288 355.018 0.264952C352.81 0.547567 350.602 1.00682 348.376 1.04214C342.547 1.14812 336.718 1.07747 330.872 1.07747C330.589 1.07747 330.324 1.07747 329.989 1.07747C330.006 1.34242 330.006 1.53672 330.024 1.78401C330.395 1.78401 330.73 1.76634 331.048 1.78401C333.15 1.85466 334.528 3.2854 334.528 5.35202C334.528 15.1552 334.528 24.9408 334.528 34.744C334.528 36.2807 333.821 37.4112 332.426 37.9764C331.684 38.2767 330.854 38.312 330.024 38.471C330.024 38.577 330.024 38.7889 330.024 38.9832C334.422 38.9832 338.767 38.9832 343.13 38.9832C343.395 38.2237 342.883 38.3297 342.477 38.3297C340.057 38.312 338.591 36.8459 338.591 34.4437C338.591 30.2751 338.591 26.0889 338.591 21.9203C338.591 21.6554 338.591 21.3728 338.591 21.0902C338.767 21.0725 338.856 21.0372 338.944 21.0372C342.512 21.0372 346.08 21.0195 349.648 21.0372C351.061 21.0372 351.962 21.991 352.032 23.4394C352.05 23.7927 352.032 24.1283 352.032 24.4815C352.315 24.4815 352.545 24.4815 352.757 24.4815C352.757 21.4964 352.757 18.5466 352.757 15.5615C352.509 15.5792 352.297 15.5968 352.032 15.5968C352.032 15.9678 352.05 16.321 352.032 16.6743C351.962 18.052 351.114 19.0412 349.789 19.0412C346.133 19.0765 342.459 19.0412 338.803 19.0412C338.767 19.0412 338.714 19.0059 338.644 18.9705C338.644 13.7068 338.644 8.42546 338.644 3.0911C338.926 3.0911 339.156 3.0911 339.385 3.0911C343.519 3.0911 347.652 3.0911 351.768 3.0911C353.728 3.0911 355 4.32754 355.035 6.30585C355.035 6.60613 355.035 6.88874 355.035 7.22435C355.336 7.20669 355.548 7.18902 355.812 7.15369C355.812 5.97024 355.795 4.83978 355.812 3.69166C355.83 2.45522 355.865 1.21878 355.883 0C355.759 0.0353269 355.618 0.0353269 355.477 0.0353269Z" fill="#212121"/>
<path d="M581.851 0.0349364C581.869 0.299889 581.904 0.582504 581.922 0.847455C582.081 2.84343 582.364 4.82174 582.381 6.81771C582.434 15.8967 582.399 24.9934 582.399 34.0725C582.399 35.9978 581.057 37.3755 579.114 37.4108C578.76 37.4108 578.389 37.4108 578.036 37.4108C577.877 37.9054 577.965 38.0997 578.46 38.0997C582.028 38.0821 585.614 38.0821 589.182 38.0997C589.729 38.0997 589.782 37.8701 589.588 37.4108C589.182 37.4108 588.793 37.4285 588.405 37.4108C586.585 37.3225 585.26 35.9448 585.243 34.1431C585.243 33.0833 585.19 32.0058 585.172 30.946C585.172 23.757 585.172 16.5503 585.172 9.36124C585.172 9.18461 585.207 8.99031 585.243 8.69003C586.603 9.9618 587.857 11.1453 589.111 12.3287C591.443 14.5543 593.774 16.7799 596.124 19.0055C599.956 22.6265 603.789 26.2475 607.622 29.8686C610.025 32.1295 612.427 34.3904 614.811 36.6513C615.589 37.3932 616.33 38.188 617.09 38.9652C617.355 38.9652 617.638 38.9652 617.903 38.9652C617.726 37.3402 617.39 35.7328 617.373 34.1078C617.302 24.4282 617.302 14.7486 617.284 5.08669C617.284 3.16137 618.697 1.74829 620.64 1.73063C620.994 1.73063 621.365 1.76595 621.718 1.80129C621.718 1.53633 621.718 1.25371 621.718 0.988763C621.453 1.00643 621.17 1.05942 620.905 1.05942C617.426 1.05942 613.928 1.05942 610.449 1.05942C610.29 1.05942 610.148 1.09474 609.989 1.11241C609.989 1.32437 609.989 1.501 609.989 1.74829C610.431 1.74829 610.837 1.73063 611.243 1.74829C613.063 1.81895 614.476 3.24969 614.476 5.05136C614.476 13.2472 614.476 21.4431 614.476 29.6389C614.476 29.7979 614.441 29.9569 614.423 30.1865C612.78 28.6498 611.208 27.166 609.636 25.6823C607.481 23.651 605.344 21.6021 603.207 19.5884C599.745 16.3383 596.282 13.0882 592.82 9.82049C590.295 7.43593 587.751 5.06903 585.225 2.6668C584.307 1.80129 583.424 0.900446 582.523 0.0172729C582.311 0.0349364 582.081 0.0349364 581.851 0.0349364Z" fill="#212121"/>
<path d="M572.227 18.0881C571.891 12.9481 569.824 8.67354 565.974 5.28215C561.964 1.74946 557.16 0.230402 551.878 0.106759C547.904 0.0184413 544.106 0.795633 540.591 2.72095C536.67 4.85823 533.738 7.93167 532.007 12.0649C530.771 14.997 530.435 18.0527 530.665 21.2145C530.982 25.7893 532.802 29.6929 536.017 32.9077C538.949 35.8398 542.552 37.6238 546.615 38.4363C547.498 38.613 548.381 38.7543 549.264 38.8956C550.73 38.8956 552.179 38.8956 553.645 38.8956C554.634 38.719 555.623 38.56 556.612 38.348C561.487 37.2882 565.585 34.9037 568.623 30.8941C571.467 27.1317 572.527 22.8042 572.227 18.0881ZM565.938 27.644C563.254 33.2256 558.82 36.4227 552.585 36.9173C547.869 37.2882 543.736 35.8045 540.344 32.5191C537.571 29.8519 535.999 26.5135 535.469 22.6982C535.31 21.6208 535.275 20.5256 535.186 19.4481C535.239 15.05 536.387 11.0404 539.267 7.64906C542.163 4.24001 545.855 2.36769 550.324 2.08507C554.634 1.80246 558.484 3.00357 561.788 5.82972C564.72 8.33793 566.521 11.5173 567.228 15.262C568.04 19.5011 567.828 23.705 565.938 27.644Z" fill="#212121"/>
<path d="M454.569 17.6811C453.915 10.5981 450.241 5.52872 443.953 2.41995C438.495 -0.282563 432.701 -0.582841 426.89 1.14818C421.414 2.79088 417.246 6.11161 414.738 11.34C413.395 14.1308 412.918 17.1159 413.007 20.207C413.077 23.3157 413.801 26.2478 415.356 28.9327C418.341 34.1081 422.898 37.0932 428.656 38.4003C429.628 38.6299 430.635 38.7712 431.624 38.9479C433.09 38.9479 434.538 38.9479 436.004 38.9479C436.075 38.8949 436.128 38.8242 436.216 38.8242C437.329 38.6299 438.477 38.5416 439.572 38.259C444.96 36.9166 449.287 34.0551 452.166 29.2153C454.268 25.6473 454.94 21.7613 454.569 17.6811ZM446.585 30.646C443.653 34.5143 439.749 36.6693 434.874 36.9696C429.981 37.2698 425.777 35.7155 422.386 32.2004C419.401 29.127 417.952 25.3293 417.67 21.0901C417.475 18.3346 417.758 15.6499 418.624 13.0357C420.743 6.76516 426.236 2.56126 432.807 2.11967C441.409 1.55444 448.263 7.64833 449.641 15.4732C449.87 16.8157 449.976 18.1757 450.135 19.5181C450.011 23.5807 449.075 27.3606 446.585 30.646Z" fill="#212121"/>
<path d="M519.941 0.476916C519.765 0.565233 519.606 0.706541 519.429 0.724204C517.415 0.989156 515.384 1.43074 513.353 1.46607C507.612 1.57205 501.871 1.5014 496.131 1.5014C495.866 1.5014 495.601 1.5014 495.354 1.5014C495.106 2.20793 495.513 2.19027 495.937 2.19027C498.409 2.20793 499.717 3.53269 499.717 5.98791C499.717 6.83576 499.717 7.66594 499.717 8.51378C499.717 17.0982 499.717 25.6826 499.717 34.2671C499.717 36.3514 498.233 37.8351 496.149 37.8528C495.884 37.8528 495.619 37.8528 495.354 37.8528C495.124 38.524 495.495 38.5416 495.919 38.5416C503.867 38.5416 511.816 38.5416 519.765 38.5416C520.241 38.5416 520.453 38.3827 520.595 37.9587C521.248 36.1924 521.937 34.4437 522.608 32.6774C522.979 31.6882 523.35 30.7167 523.739 29.7099C523.05 29.6569 523.068 29.6569 522.838 30.1515C522.078 31.7412 521.213 33.2603 519.871 34.4437C518.175 35.9451 516.091 36.5103 513.883 36.5457C510.703 36.5987 507.506 36.5633 504.327 36.5633C504.15 36.5633 503.973 36.5457 503.779 36.528C503.779 31.335 503.779 26.1949 503.779 20.9842C507.365 20.9842 510.88 20.9665 514.413 21.0018C515.525 21.0195 516.32 21.7614 516.55 22.8565C516.656 23.3334 516.638 23.8457 516.673 24.3579C516.903 24.3579 517.115 24.3579 517.327 24.3579C517.327 21.4434 517.327 18.5643 517.327 15.6851C517.08 15.6851 516.885 15.6851 516.638 15.6851C516.638 15.8971 516.638 16.0737 516.638 16.2504C516.62 18.211 515.755 19.0589 513.794 19.0589C510.703 19.0589 507.594 19.0589 504.503 19.0589C504.256 19.0589 504.009 19.0589 503.761 19.0589C503.761 13.8305 503.761 8.69042 503.761 3.53269C503.885 3.51503 503.973 3.4797 504.044 3.4797C508.266 3.4797 512.47 3.46204 516.691 3.4797C518.157 3.49737 519.394 4.7868 519.447 6.25286C519.464 6.64146 519.447 7.01239 519.447 7.43631C519.729 7.43631 519.941 7.43631 520.206 7.43631C520.206 5.08708 520.206 2.77316 520.206 0.441589C520.135 0.476916 520.047 0.476916 519.941 0.476916Z" fill="#212121"/>
<path d="M475.659 38.8954C476.595 38.6305 477.568 38.4185 478.487 38.0829C482.797 36.5109 485.444 32.4836 485.003 28.1561C484.756 25.7538 483.961 23.5989 481.947 22.0622C479.527 20.2075 477.125 18.3529 474.723 16.4806C472.833 14.9968 470.89 13.5661 469.106 11.9587C466.933 9.99807 466.368 5.72351 469.883 3.44493C471.897 2.13783 474.087 1.83756 476.401 2.12017C478.114 2.33213 479.704 2.79138 480.817 4.23978C481.541 5.17595 481.77 6.27108 481.859 7.43687C482.124 7.43687 482.371 7.43687 482.53 7.43687C482.53 5.15828 482.53 2.91503 482.53 0.583455C481.611 0.583455 480.781 0.636446 479.969 0.565792C478.026 0.442148 476.083 0.124207 474.14 0.124207C470.925 0.124207 468.17 1.32532 466.015 3.7982C463.082 7.15425 463.506 13.3541 467.675 16.3746C471.614 19.2184 475.429 22.2388 479.245 25.2593C482.724 27.9971 482.389 33.3668 478.591 35.61C475.889 37.2174 472.956 37.3764 469.971 36.5109C467.869 35.9103 466.333 34.5856 465.432 32.5719C464.831 31.2472 464.708 29.8164 464.831 28.3504C464.425 28.3504 464.036 28.1384 463.895 28.739C463.418 30.5936 463.241 32.4836 463.206 34.4089C463.188 35.6807 463.718 36.4579 464.849 36.9878C466.686 37.8533 468.594 38.3655 470.589 38.6482C471.102 38.7188 471.596 38.8248 472.091 38.9131C473.274 38.8954 474.458 38.8954 475.659 38.8954Z" fill="#212121"/>
<path d="M392.499 0.141418C392.446 0.618331 392.658 0.794966 393.135 0.759639C394.248 0.688985 395.308 0.936273 396.226 1.58982C396.915 2.06674 397.304 2.66729 397.286 3.58579C397.269 12.4352 397.286 21.3023 397.251 30.1516C397.251 30.9288 397.074 31.759 396.774 32.4656C395.555 35.327 393.4 37.1994 390.468 38.2062C390.15 38.3122 389.815 38.3651 390.044 38.8951C390.309 38.8951 390.592 38.9127 390.892 38.8951C393.277 38.7361 395.485 38.0295 397.445 36.6518C400.006 34.8678 401.349 32.5009 401.313 29.2861C401.243 20.79 401.296 12.2939 401.278 3.81542C401.278 2.86159 401.578 2.0844 402.409 1.62515C403.009 1.28954 403.68 1.02459 404.352 0.847956C404.881 0.706648 405.464 0.741975 406.012 0.706648C406.065 0.494687 406.1 0.318053 406.153 0.141418C401.596 0.141418 397.057 0.141418 392.499 0.141418Z" fill="#212121"/>
<path d="M206.627 1.81849C206.627 1.81849 206.627 5.36884 206.627 7.13519C206.38 7.13519 206.168 7.13519 205.867 7.13519C205.867 6.79958 205.885 6.46398 205.867 6.11071C205.814 4.3267 204.56 3.00194 202.776 2.98428C199.067 2.94895 195.358 2.96661 191.666 2.98428C191.595 2.98428 191.542 3.00194 191.401 3.03727C191.401 3.30222 191.401 3.58483 191.401 3.84979C191.401 14.1122 191.436 24.357 191.366 34.6195C191.348 36.4565 193.044 38.3818 195.04 38.2934C195.269 38.2758 195.499 38.2934 195.729 38.2934C195.852 38.7174 195.888 39 195.358 39C191.189 39 187.02 39 182.799 39C182.781 38.7704 182.764 38.5761 182.746 38.2934C183.117 38.2934 183.435 38.3111 183.753 38.2934C185.625 38.2228 187.215 36.6507 187.215 34.7784C187.232 24.3393 187.215 13.9003 187.215 3.46119C187.215 3.31988 187.197 3.19624 187.197 2.98428C186.844 2.98428 186.526 2.98428 186.208 2.98428C182.905 2.98428 179.584 3.0196 176.282 2.96661C173.95 2.93129 172.537 4.53866 172.749 6.4993C172.767 6.71126 172.731 6.90556 172.714 7.15285C172.484 7.17051 172.272 7.17051 171.972 7.18818C171.972 4.78595 171.972 2.41905 171.972 0.0521483C172.113 0.0521483 172.254 0.0521483 172.396 0.0521483C172.537 0.122802 172.678 0.211119 172.82 0.228782C174.763 0.493734 176.723 0.952983 178.683 0.98831C185.289 1.07663 191.913 1.0413 198.519 1.00597C200.091 1.00597 201.681 0.88233 203.236 0.705695C204.207 0.599715 205.143 0.264109 206.097 0.0344849C206.291 0.0344849 206.468 0.0344849 206.662 0.0344849C206.662 0.352426 206.662 1.05896 206.662 1.05896" fill="#212121"/>
<path d="M23.8633 19.005C22.5915 18.4574 21.2491 18.1218 20.0127 17.6979C20.5956 17.4153 21.3021 17.1327 21.9733 16.7618C26.7248 14.1476 27.8552 7.96537 24.3049 3.86745C22.7329 2.06578 20.6132 1.18261 18.3523 0.617378C17.3985 0.387753 16.4623 0.228782 15.5262 0.0344849C10.3508 0.0344849 5.17539 0.0344849 0 0.0344849C0 0.228782 0 0.405417 0 0.599715C1.55438 0.546724 3.07344 0.741022 4.08026 2.10111C4.48651 2.64867 4.85745 3.39054 4.87511 4.02642C4.91044 14.3419 4.89277 24.6573 4.89277 34.9727C4.89277 36.6861 3.14409 38.2934 1.2541 38.3464C0.830182 38.3641 0.423923 38.3464 0 38.3464C0 38.5407 0 38.7174 0 38.9117C0.300279 38.9293 0.600557 38.9823 0.900836 38.9823C6.02323 38.9823 11.1456 39 16.268 38.9823C19.0059 38.9647 21.6907 38.5407 24.1989 37.3926C26.8484 36.1738 28.8974 34.3545 29.7452 31.4754C31.2996 26.2823 28.8444 21.1246 23.8633 19.005ZM23.2628 34.1249C21.8673 35.5909 20.0833 36.4741 18.105 36.6507C15.1376 36.898 12.1701 36.951 9.11434 37.0923C9.11434 25.2402 9.11434 13.6 9.11434 1.88914C11.9052 1.88914 14.7136 1.58887 17.3632 2.75465C20.0657 3.9381 21.3551 6.14603 21.5317 9.00751C21.6554 10.8622 21.4434 12.6815 20.2953 14.2536C18.8999 16.1965 16.9039 17.0974 14.643 17.5036C13.6362 17.6802 12.6117 17.7332 11.6049 17.8745C11.4459 17.8922 11.2869 18.0511 11.128 18.1395C11.3046 18.2278 11.4636 18.4044 11.6402 18.4221C14.1131 18.5281 16.5506 18.7224 18.9175 19.4995C21.3374 20.2944 23.3511 21.6368 24.5345 23.9684C25.8063 26.4413 25.9653 31.2634 23.2628 34.1249Z" fill="#212121"/>
<path d="M143.922 38.9823C144.046 38.9293 144.152 38.8763 144.276 38.841C145.547 38.5761 146.872 38.4171 148.109 38.0285C151.835 36.8627 154.626 34.5665 156.251 30.9631C157.135 28.9848 157.452 26.9005 157.47 24.7633C157.488 17.7685 157.47 10.7739 157.47 3.77913C157.47 1.99512 158.707 0.758686 160.508 0.741022C160.809 0.741022 161.109 0.741022 161.427 0.741022C161.427 0.476071 161.427 0.281773 161.427 0.0874752C157.77 0.0874752 154.149 0.0874752 150.546 0.0874752C150.458 0.741022 150.458 0.741022 151.182 0.741022C153.39 0.758686 154.45 1.80083 154.45 4.00876C154.45 10.9152 154.45 17.8039 154.45 24.7103C154.45 25.2932 154.432 25.876 154.379 26.4589C153.867 31.0868 151.624 34.4605 147.225 36.2445C145.053 37.1277 142.774 37.3043 140.478 37.1453C137.334 36.951 134.667 35.7322 132.671 33.2064C130.586 30.5569 129.915 27.4658 129.897 24.2157C129.844 17.4153 129.88 10.5972 129.88 3.7968C129.88 1.99512 131.099 0.776349 132.9 0.741022C133.201 0.741022 133.501 0.741022 133.783 0.741022C133.995 0.228782 133.854 0.0344849 133.36 0.0344849C129.686 0.0521483 126.012 0.0521483 122.338 0.0344849C121.825 0.0344849 121.737 0.228782 121.896 0.705695C122.02 0.723359 122.126 0.741022 122.232 0.741022C124.881 0.829339 125.817 1.80083 125.817 4.45034C125.817 11.5157 125.8 18.581 125.817 25.6464C125.817 27.6071 126.241 29.4971 127.107 31.2634C129.173 35.4496 132.688 37.6399 137.139 38.5584C137.899 38.7174 138.659 38.841 139.418 38.9823C140.937 38.9823 142.421 38.9823 143.922 38.9823Z" fill="#212121"/>
<path d="M64.0661 0.0344849C63.8894 0.122802 63.7128 0.246446 63.5185 0.281773C61.3989 0.564388 59.2969 1.00597 57.1596 1.05896C51.313 1.16494 45.4664 1.09429 39.6198 1.09429C39.3549 1.09429 39.0723 1.09429 38.7897 1.09429C38.7897 1.35924 38.7897 1.53588 38.7897 1.80083C39.0723 1.80083 39.3196 1.80083 39.5669 1.80083C41.8454 1.81849 43.2938 3.2139 43.2938 5.49249C43.3115 15.1544 43.3115 24.8339 43.2938 34.4958C43.2938 36.8274 41.8101 38.2758 39.4962 38.2934C39.2666 38.2934 39.0369 38.2934 38.7543 38.2934C38.772 38.5584 38.7897 38.7527 38.7897 38.947C38.9133 38.9647 38.984 38.9823 39.0546 38.9823C47.3564 38.9823 55.6406 38.9823 63.9424 39C64.3487 39 64.49 38.8057 64.6136 38.4701C65.4261 36.3505 66.2563 34.2132 67.0688 32.0936C67.3338 31.387 67.5811 30.6805 67.846 29.9916C67.7754 29.9386 67.7047 29.868 67.6341 29.815C67.4221 29.974 67.1572 30.1153 67.0158 30.3272C66.8039 30.6275 66.6626 30.9808 66.5036 31.3164C64.6313 35.1847 61.5225 37.0393 57.2303 36.9864C54.2098 36.951 51.1717 36.9864 48.1513 36.9864C47.904 36.9864 47.6567 36.9864 47.3918 36.9864C47.3918 31.6343 47.3918 26.3706 47.3918 21.1246C47.4977 21.0893 47.5507 21.0539 47.6214 21.0539C51.1894 21.0539 54.7574 21.0186 58.3078 21.0539C59.5265 21.0716 60.3567 21.9018 60.551 23.1382C60.6217 23.5798 60.6393 24.039 60.6747 24.4983C60.922 24.4983 61.1339 24.4983 61.3459 24.4983C61.3459 21.5132 61.3459 18.5634 61.3459 15.5783C61.0809 15.596 60.869 15.6136 60.6393 15.6313C60.657 15.7903 60.6393 15.9316 60.6393 16.0729C60.5863 18.2278 59.7562 19.0403 57.6012 19.0403C54.4571 19.0403 51.313 19.0403 48.1689 19.0403C47.9217 19.0403 47.6744 19.0403 47.4094 19.0403C47.4094 13.6883 47.4094 8.44228 47.4094 3.10792C47.692 3.10792 47.9393 3.10792 48.1866 3.10792C52.2492 3.10792 56.2941 3.10792 60.3567 3.10792C62.2467 3.10792 63.5185 4.36203 63.5185 6.25201C63.5185 6.56996 63.5185 6.8879 63.5185 7.24117C63.8188 7.2235 64.0307 7.20584 64.2957 7.17051C64.2957 5.98706 64.278 4.8566 64.2957 3.72614C64.2957 2.4897 64.3133 1.27093 64.3487 0.0344849C64.2427 0.0344849 64.1544 0.0344849 64.0661 0.0344849Z" fill="#212121"/>
<path d="M115.219 37.6417C113.594 36.8645 112.835 35.3278 112.146 33.7911C107.129 22.7161 102.131 11.6234 97.1319 0.548381C96.9552 0.159785 96.7433 -0.0875033 96.3547 0.0891311C96.0367 1.04296 95.8069 1.97912 95.4007 2.84463C93.2634 7.57843 91.091 12.2946 88.9184 17.0107C86.2335 22.8221 83.531 28.6333 80.7932 34.4446C79.7157 36.7232 78.1083 38.2952 75.3882 38.3129C75.3528 38.3129 75.3175 38.3481 75.2645 38.3834C75.2645 38.56 75.2645 38.7368 75.2645 38.9135C75.3528 38.9311 75.4235 38.9665 75.4941 38.9665C79.3095 38.9665 83.1069 38.9663 86.9224 38.9839C87.4523 38.9839 87.417 38.7015 87.311 38.3659C84.6968 37.942 83.796 36.5466 84.7145 34.374C85.7919 31.8128 86.9047 29.2869 87.9469 26.708C88.1235 26.2664 88.3178 26.1251 88.7947 26.1251C92.9456 26.1428 97.1142 26.1428 101.283 26.1428C102.219 26.1428 103.155 26.1428 104.091 26.1428C104.321 26.708 104.551 27.2379 104.78 27.7678C105.716 30.0464 106.67 32.325 107.571 34.6213C108.154 36.1226 107.695 37.3767 106.335 38.0303C105.911 38.2423 105.398 38.2599 104.886 38.3659C104.886 38.5249 104.886 38.7192 104.886 38.9135C109.231 38.9135 113.541 38.9135 117.869 38.9135C117.869 38.6838 117.869 38.5072 117.869 38.4895C116.915 38.2069 116.014 38.0303 115.219 37.6417ZM89.0243 24.1645C91.4266 18.4945 93.7935 12.8775 96.2487 7.04853C98.6333 12.8421 100.93 18.4592 103.279 24.1645C98.492 24.1645 93.8111 24.1645 89.0243 24.1645Z" fill="#212121"/>
<path d="M228.477 4.04408L223.796 3.88511C223.284 3.03727 222.524 2.27774 221.517 1.60653C220.51 0.93532 219.415 0.599715 218.232 0.599715H217.455V0.0344849H231.144V0.599715H230.42C229.607 0.599715 228.989 0.98831 228.547 1.74784C228.123 2.4897 228.106 3.26689 228.477 4.04408ZM226.357 0.0874752L237.255 20.4004L234.871 22.3434L221.57 0.0874752H226.357ZM234.535 34.9197V38.9823H230.137V38.4171C230.579 38.4171 230.826 38.4171 230.861 38.4171C231.833 38.4171 232.645 38.0815 233.334 37.3926C234.023 36.7037 234.376 35.8736 234.412 34.9197H234.535ZM238.05 21.0716V38.9823H234.429V21.0716H238.05ZM247.942 0.0874752H251.333L237.644 22.2374L235.648 21.6192L247.942 0.0874752ZM237.874 34.9197H238.032C238.032 35.8912 238.386 36.7037 239.092 37.3926C239.799 38.0815 240.629 38.4171 241.601 38.4171H242.272V38.9823H237.874V34.9197ZM245.663 4.04408C245.999 3.53184 246.087 3.00194 245.946 2.45437C245.804 1.92447 245.522 1.46522 245.116 1.11195C244.709 0.758686 244.25 0.582051 243.72 0.582051H243.049V0.0344849H255.396V0.599715H254.618C253.47 0.599715 252.393 0.93532 251.386 1.60653C250.379 2.27774 249.584 3.03727 249.002 3.88511L245.663 4.04408Z" fill="#212121"/>
</svg>
