<svg width="207" height="39" viewBox="0 0 207 39" fill="none" xmlns="http://www.w3.org/2000/svg">
<path d="M0.423007 17.4776C0.423007 14.6643 0.386224 12.169 0.318788 9.97948C0.245221 7.79615 0.147133 5.60035 0.00613053 3.39832C0.600792 3.46693 1.25063 3.52307 1.94951 3.57298C2.64839 3.62288 3.43922 3.65408 4.30977 3.65408C5.81175 3.65408 7.38728 3.6104 9.03027 3.5293C10.6732 3.44197 12.2488 3.40455 13.7507 3.40455C15.2528 3.40455 16.7609 3.5605 18.0544 3.86616C19.3479 4.17183 20.4636 4.63345 21.4139 5.26349C22.3581 5.89354 23.0814 6.70448 23.5903 7.70257C24.093 8.70067 24.3505 9.89838 24.3505 11.2895C24.3505 12.6806 24.0501 13.872 23.4616 14.8701C22.8669 15.8744 22.1435 16.7041 21.2852 17.3654C20.4269 18.0266 19.5012 18.5444 18.5081 18.9124C17.5088 19.2866 16.6076 19.5361 15.8045 19.6735V19.7733C16.6076 19.8106 17.5516 19.9853 18.6368 20.3098C19.7219 20.6342 20.7518 21.1332 21.7327 21.8131C22.7136 22.493 23.5412 23.3601 24.2279 24.4331C24.9084 25.4998 25.2517 26.7973 25.2517 28.3194C25.2517 30.1471 24.9084 31.7067 24.2279 32.998C23.5474 34.2829 22.64 35.3372 21.4997 36.1482C20.3656 36.9592 19.0598 37.5268 17.5885 37.8511C16.1171 38.1694 14.603 38.3315 13.0274 38.3315C11.6296 38.3315 10.3238 38.3128 9.12222 38.2816C7.91451 38.2442 6.64549 38.2317 5.32129 38.2317H2.39091C1.39163 38.2317 0.594662 38.2629 0 38.3315C0.141002 36.2293 0.245221 34.0896 0.312657 31.9C0.386224 29.7105 0.416876 27.2152 0.416876 24.4018V17.4901L0.423007 17.4776ZM16.5769 12.2376C16.5769 11.4267 16.4789 10.6532 16.2889 9.92957C16.0987 9.19972 15.7738 8.5759 15.3201 8.04568C14.8665 7.51543 14.2903 7.09749 13.5853 6.7731C12.8864 6.44872 12.0158 6.28654 10.9614 6.28654C10.1889 6.28654 9.65558 6.29901 9.36132 6.31149C9.06705 6.33021 8.74213 6.36763 8.39269 6.43624C8.31913 7.6901 8.27008 8.95644 8.2333 10.2477C8.19652 11.539 8.18425 12.6182 8.18425 13.504C8.18425 14.3899 8.19039 15.2942 8.20878 16.1239C8.22717 16.9536 8.2333 17.8145 8.2333 18.6941H10.5936C11.3292 18.6941 12.0526 18.5568 12.7699 18.2886C13.4872 18.0141 14.1247 17.6149 14.6887 17.0909C15.2466 16.5669 15.7003 15.8932 16.0497 15.0822C16.3992 14.2712 16.5769 13.3231 16.5769 12.2376ZM16.9448 28.6626C16.9448 26.292 16.3931 24.5205 15.2957 23.3539C14.1921 22.1812 12.5921 21.601 10.4955 21.601C10.005 21.601 9.58815 21.6135 9.23871 21.6259C8.88926 21.6446 8.55822 21.6509 8.24557 21.6509C8.24557 22.3682 8.2333 23.1044 8.22104 23.8654C8.20264 24.6264 8.19652 25.5372 8.19652 26.5852C8.19652 27.4024 8.20264 28.2321 8.22104 29.0742C8.23943 29.9225 8.24557 30.7522 8.24557 31.5695C8.24557 32.3866 8.25169 33.1289 8.27008 33.8027C8.28848 34.4825 8.2946 35.044 8.2946 35.4807C8.78505 35.5181 9.23871 35.5368 9.66171 35.5617C10.0786 35.5806 10.5874 35.5867 11.1821 35.5867C11.9545 35.5867 12.6841 35.437 13.383 35.1314C14.0818 34.8257 14.6949 34.3766 15.2159 33.7839C15.7433 33.1913 16.1601 32.4677 16.4727 31.6194C16.7853 30.7709 16.9448 29.7917 16.9448 28.6687V28.6626Z" fill="#2F3032"/>
<path d="M32.9026 8.1579L33.0375 8.23899C33.0498 8.24523 33.062 8.25146 33.0742 8.25771L37.2737 10.6781C36.7648 9.0437 37.7335 7.83352 37.9542 7.59023C38.7573 6.81048 39.26 5.71881 39.26 4.50239C39.26 2.1444 37.384 0.229309 35.0606 0.229309C32.737 0.229309 30.8611 2.13815 30.8611 4.50239C30.8611 6.05567 31.6827 7.41556 32.9026 8.16413V8.1579Z" fill="#2F3032"/>
<path d="M38.6908 19.3497C38.7398 17.5344 38.8563 15.7129 39.0341 13.8851C38.0531 14.0536 36.7474 14.1347 35.0983 14.1347C34.2952 14.1347 33.5595 14.1098 32.8974 14.0599C32.2353 14.01 31.6529 13.9538 31.1686 13.8851C31.3402 15.7129 31.4567 17.5344 31.5058 19.3497C31.5609 21.1588 31.5855 23.0987 31.5855 25.1699V27.2035C31.5855 29.2682 31.5609 31.2207 31.5058 33.0547C31.4567 34.8824 31.3402 36.6479 31.1686 38.3384C31.6529 38.2697 32.2353 38.2386 32.8974 38.2386H37.3298C38.0103 38.2386 38.5805 38.2697 39.0341 38.3384C38.8624 36.6416 38.7459 34.8824 38.6908 33.0547C38.6417 31.2207 38.611 29.2745 38.611 27.2035V25.1699C38.611 23.105 38.6356 21.1649 38.6908 19.3497Z" fill="#2F3032"/>
<path d="M44.1166 26.7859C44.1166 24.5214 44.4721 22.5377 45.1893 20.841C45.9067 19.1442 46.863 17.7343 48.0462 16.5991C49.2355 15.4637 50.6088 14.6154 52.1659 14.0539C53.723 13.4926 55.3231 13.218 56.9661 13.218C61.0552 13.218 64.2186 14.3346 66.4562 16.5741C68.6939 18.8135 69.8096 21.8453 69.8096 25.6755C69.8096 27.7403 69.497 29.6054 68.8655 31.271C68.2402 32.9304 67.3513 34.3463 66.2171 35.5129C65.083 36.6857 63.722 37.5527 62.1525 38.1328C60.577 38.7067 58.8483 39 56.9599 39C55.3844 39 53.8334 38.7941 52.3192 38.3886C50.7988 37.9769 49.4256 37.297 48.1995 36.3301C46.9733 35.3632 45.9863 34.1031 45.2384 32.5436C44.4844 30.984 44.1104 29.069 44.1104 26.7983L44.1166 26.7859ZM62.0545 24.9081C62.0545 21.9263 61.6682 19.6121 60.8958 17.9714C60.1233 16.3246 58.8483 15.5011 57.0642 15.5011C55.4519 15.5011 54.189 16.4182 53.2632 18.2459C52.3376 20.0799 51.8717 22.9432 51.8717 26.8358C51.8717 28.258 51.9575 29.5805 52.1352 30.8031C52.3069 32.0196 52.6012 33.0862 52.9997 33.9846C53.3981 34.8829 53.9253 35.5815 54.5691 36.0931C55.2189 36.6045 56.0282 36.854 57.009 36.854C60.3624 36.854 62.0483 32.8742 62.0483 24.9081H62.0545Z" fill="#2F3032"/>
<path d="M97.5116 20.885C97.5116 24.2037 97.5483 27.2541 97.6158 30.0364C97.6832 32.8185 97.7874 35.5758 97.9284 38.3204C97.4686 38.2519 96.8923 38.2206 96.1934 38.2206H91.9695C91.3197 38.2206 90.8231 38.2519 90.4736 38.3204C90.5043 38.2519 90.5411 38.0336 90.5778 37.6593C90.6147 37.2912 90.6576 36.8607 90.7127 36.3866C90.7619 35.9125 90.8108 35.4697 90.8476 35.0642C90.8783 34.6587 90.8968 34.4029 90.8968 34.3031L90.7925 34.2033C90.1303 35.7316 89.223 36.9045 88.0644 37.7403C86.9118 38.57 85.3179 38.988 83.2948 38.988C81.5108 38.988 79.9905 38.6573 78.7337 37.9961C77.4769 37.3349 76.4408 36.4116 75.6379 35.2264C74.8347 34.0412 74.24 32.65 73.8539 31.0594C73.4676 29.4686 73.2776 27.7532 73.2776 25.9254C73.2776 24.0976 73.5411 22.4072 74.0623 20.8663C74.5895 19.3256 75.3007 17.9844 76.2141 16.849C77.1213 15.7138 78.2004 14.8279 79.4388 14.1792C80.6771 13.5366 82.0013 13.2122 83.399 13.2122C84.9745 13.2122 86.3785 13.5678 87.623 14.279C88.8614 14.99 89.781 15.8884 90.3756 16.9738H90.4798C90.4798 13.9234 90.4431 11.0539 90.3756 8.35901C90.302 5.66417 90.1978 2.87574 90.0629 0C90.5166 0.0686187 91.0929 0.124761 91.7979 0.174666C92.4967 0.224571 93.2325 0.249523 93.9988 0.249523C94.765 0.249523 95.5008 0.224571 96.1996 0.174666C96.8985 0.124761 97.4748 0.0623807 97.9346 0C97.7935 2.84456 97.6893 5.65793 97.6219 8.44011C97.5544 11.2223 97.5177 14.2664 97.5177 17.5914V20.8976L97.5116 20.885ZM81.0387 26.6802C81.0387 28.4081 81.1614 29.8679 81.4066 31.0531C81.6518 32.2384 81.989 33.199 82.4059 33.9227C82.8228 34.6524 83.3071 35.1765 83.8465 35.5009C84.3861 35.819 84.9563 35.9811 85.5508 35.9811C86.9854 35.9811 88.1686 35.1952 89.0944 33.617C90.02 32.0388 90.4859 29.425 90.4859 25.7633C90.4859 22.6129 90.0507 20.3174 89.174 18.8763C88.3035 17.4354 87.1816 16.718 85.8206 16.718C85.2628 16.718 84.6987 16.8678 84.1409 17.1734C83.583 17.4791 83.0741 18.0093 82.6204 18.7765C82.1668 19.5439 81.7867 20.5669 81.4924 21.852C81.192 23.1371 81.0449 24.7464 81.0449 26.6802H81.0387Z" fill="#2F3032"/>
<path d="M103.758 16.7799C105.229 15.6321 106.805 14.7464 108.503 14.135C110.201 13.5236 111.887 13.218 113.567 13.218C114.965 13.218 116.252 13.3739 117.423 13.6796C118.594 13.9853 119.612 14.4657 120.464 15.1268C121.322 15.7881 121.984 16.6427 122.456 17.6907C122.928 18.7449 123.167 20.0113 123.167 21.5021C123.167 23.6731 123.143 25.6817 123.088 27.5219C123.032 29.3684 123.008 31.2086 123.008 33.0426C123.008 33.8536 123.069 34.4898 123.192 34.9452C123.314 35.4069 123.498 35.7499 123.744 35.987C123.989 36.224 124.314 36.38 124.712 36.4485C125.117 36.5173 125.577 36.5484 126.104 36.5484V37.7648C125.092 38.1703 124.234 38.4822 123.535 38.6818C122.836 38.8814 122.082 38.9875 121.279 38.9875C119.986 38.9875 118.937 38.6818 118.128 38.0705C117.325 37.4592 116.712 36.5796 116.295 35.4318C115.492 36.5173 114.554 37.3843 113.487 38.0206C112.42 38.6631 111.084 38.9875 109.472 38.9875C108.147 38.9875 107.007 38.8191 106.063 38.4822C105.119 38.1391 104.34 37.6588 103.727 37.0287C103.114 36.4049 102.667 35.6937 102.385 34.8953C102.103 34.0968 101.968 33.2921 101.968 32.4812C101.968 31.3646 102.152 30.3977 102.52 29.5867C102.887 28.7695 103.408 28.0771 104.095 27.5032C104.776 26.9293 105.591 26.4427 106.535 26.0497C107.479 25.6629 108.546 25.3324 109.735 25.0578C111.207 24.721 112.365 24.4216 113.224 24.1658C114.082 23.9163 114.719 23.6605 115.142 23.4047C115.559 23.1491 115.829 22.8683 115.952 22.5689C116.074 22.2632 116.136 21.889 116.136 21.446C116.136 20.2296 115.694 19.1878 114.799 18.3208C113.91 17.4599 112.672 17.0295 111.096 17.0295C110.502 17.0295 109.895 17.1044 109.263 17.2602C108.638 17.41 108.031 17.6221 107.455 17.8903C106.878 18.1648 106.351 18.4581 105.885 18.7824C105.413 19.1005 105.052 19.4498 104.812 19.8241H104.445L103.764 16.7738L103.758 16.7799ZM116.185 30.6035C116.185 29.1439 116.197 28.0335 116.215 27.2724C116.234 26.5114 116.24 25.8376 116.24 25.2637C115.504 25.6692 114.725 25.9998 113.904 26.2556C113.083 26.5114 112.328 26.8295 111.648 27.2225C110.967 27.6156 110.41 28.1457 109.968 28.8256C109.533 29.5056 109.312 30.485 109.312 31.7763C109.312 33.0675 109.582 33.9907 110.128 34.6458C110.667 35.307 111.39 35.6377 112.304 35.6377C113.457 35.6377 114.394 35.2135 115.112 34.365C115.829 33.5167 116.185 32.2628 116.185 30.6035Z" fill="#2F3032"/>
<path d="M137.17 17.6907C138.15 16.2684 139.297 15.1706 140.603 14.3908C141.914 13.611 143.41 13.218 145.09 13.218C147.713 13.218 149.731 13.9541 151.153 15.4325C152.569 16.9048 153.275 19.2877 153.275 22.5751C153.275 24.3031 153.237 25.8314 153.171 27.1476C153.096 28.47 153.065 29.7926 153.065 31.115C153.065 32.2005 153.091 33.3732 153.145 34.6458C153.195 35.9183 153.256 37.1472 153.329 38.3325C152.869 38.2639 152.294 38.2327 151.595 38.2327H147.186C146.482 38.2327 145.905 38.2639 145.452 38.3325C145.697 36.5672 145.856 34.4961 145.924 32.1068C145.991 29.7178 146.028 26.9792 146.028 23.8976C146.028 21.7642 145.655 20.1921 144.901 19.1941C144.152 18.196 143.091 17.6907 141.73 17.6907C140.155 17.6907 139.003 18.352 138.266 19.6744C137.531 20.9968 137.163 22.8247 137.163 25.1639V27.1975C137.163 29.2624 137.194 31.2149 137.243 33.0489C137.292 34.8766 137.408 36.642 137.586 38.3325C137.132 38.2639 136.563 38.2327 135.882 38.2327H131.45C130.781 38.2327 130.205 38.2639 129.715 38.3325C129.892 36.6358 130.003 34.8766 130.058 33.0489C130.113 31.2149 130.138 29.2686 130.138 27.1975V25.1639C130.138 23.0992 130.113 21.1591 130.058 19.3438C130.009 17.5286 129.892 15.707 129.715 13.8792C130.346 13.9478 130.965 14.004 131.578 14.0539C132.191 14.1038 132.811 14.1288 133.442 14.1288C134.074 14.1288 134.693 14.1038 135.306 14.0539C135.919 14.004 136.575 13.9478 137.274 13.8792L137.066 17.6907H137.17Z" fill="#2F3032"/>
<path d="M176.333 17.2042C175.511 16.2747 174.297 15.8068 172.685 15.8068C170.589 15.8068 169.013 16.73 167.959 18.5765C166.91 20.423 166.388 22.9931 166.388 26.2743C166.388 29.3559 167.052 31.7264 168.382 33.367C169.705 35.0139 171.65 35.8373 174.206 35.8373C175.284 35.8373 176.338 35.5939 177.351 35.1012C178.362 34.6084 179.116 34.0595 179.606 33.4481L180.232 33.9534C179.986 34.4275 179.778 34.9202 179.606 35.4255C179.429 35.9308 179.256 36.4424 179.079 36.9476C178.306 37.5216 177.338 38.0081 176.168 38.3949C174.996 38.7879 173.604 38.9812 171.998 38.9812C169.443 38.9812 167.296 38.6257 165.542 37.9146C163.796 37.2034 162.385 36.2365 161.319 35.02C160.252 33.7974 159.493 32.4188 159.039 30.8779C158.585 29.3372 158.359 27.7902 158.359 26.2307C158.359 24.3654 158.683 22.6375 159.333 21.0467C159.982 19.4561 160.902 18.0838 162.109 16.9297C163.318 15.7757 164.777 14.8712 166.487 14.2099C168.198 13.5486 170.104 13.218 172.207 13.218C174.31 13.218 175.885 13.4426 177.271 13.8792C178.651 14.316 179.974 14.8961 181.231 15.6072C180.808 16.2871 180.416 17.1168 180.048 18.0962C179.679 19.0818 179.41 20.0113 179.239 20.897H177.982C177.699 19.3687 177.148 18.1461 176.333 17.2103V17.2042Z" fill="#2F3032"/>
<path d="M191.831 26.1765C191.831 27.5301 191.972 28.8028 192.254 29.9879C192.536 31.1732 192.965 32.2025 193.542 33.0634C194.118 33.9304 194.853 34.6041 195.742 35.097C196.631 35.5898 197.673 35.833 198.863 35.833C201.278 35.833 203.424 35.0721 205.318 33.5437L205.943 33.999L204.791 36.8436C203.915 37.4861 202.866 38.0039 201.646 38.3906C200.42 38.7837 198.813 38.977 196.821 38.977C195.111 38.977 193.48 38.7462 191.942 38.2908C190.402 37.8354 189.048 37.0807 187.876 36.0326C186.706 34.9784 185.78 33.6497 185.093 32.0404C184.412 30.4309 184.069 28.5095 184.069 26.2702C184.069 24.0306 184.37 22.153 184.989 20.5249C185.596 18.8968 186.448 17.5431 187.533 16.4576C188.613 15.3722 189.9 14.5612 191.389 14.0185C192.873 13.4759 194.492 13.2076 196.245 13.2076C199.709 13.2076 202.351 14.1932 204.189 16.1582C206.023 18.1231 206.942 20.9053 206.942 24.4922V25.559C206.942 25.8647 206.925 26.0643 206.894 26.1703H191.836L191.831 26.1765ZM199.91 23.8933C199.837 21.3483 199.518 19.3209 198.943 17.7926C198.36 16.2704 197.391 15.5032 196.03 15.5032C195.258 15.5032 194.614 15.759 194.087 16.2643C193.56 16.7695 193.143 17.4245 192.83 18.2229C192.517 19.0215 192.278 19.9198 192.119 20.9178C191.959 21.9159 191.867 22.9078 191.831 23.8872H199.91V23.8933Z" fill="#2F3032"/>
</svg>
