<svg width="226" height="39" viewBox="0 0 226 39" fill="none" xmlns="http://www.w3.org/2000/svg">
<path d="M108.095 0H102.085V6.07988H108.095V0Z" fill="#231916"/>
<path d="M91.3885 10.9516H83.4405C81.6 10.9504 79.7791 11.3246 78.0873 12.0512C76.4454 12.7536 74.9482 13.7569 73.6715 15.0098C72.404 16.2651 71.3913 17.7555 70.6881 19.3984C69.9785 21.1083 69.6134 22.9426 69.6134 24.7953C69.6134 26.648 69.9785 28.4823 70.6881 30.1923C72.1026 33.5466 74.7594 36.2166 78.097 37.638C79.7917 38.3541 81.6115 38.7229 83.4503 38.7229C85.2884 38.7229 87.1082 38.3541 88.8029 37.638C90.458 36.9424 91.9592 35.9233 93.2187 34.64C94.4696 33.3603 95.4685 31.8546 96.1631 30.2021C96.8807 28.5007 97.2464 26.6704 97.2372 24.8224V0.0196533H91.3885V10.9516ZM83.4405 16.8096H91.3885V24.8027C91.4034 26.3851 90.9488 27.936 90.0842 29.2584C89.2191 30.5807 87.9826 31.6146 86.5313 32.2287C84.5381 33.0426 82.3079 33.0426 80.3147 32.2287C78.8565 31.6194 77.6114 30.5881 76.7376 29.2658C75.8639 27.9435 75.4012 26.3899 75.4081 24.8027C75.4 23.7355 75.6102 22.678 76.0264 21.6962C76.4259 20.7448 77.0063 19.8807 77.7342 19.1518C78.4817 18.404 79.3686 17.8122 80.3445 17.4102C81.3204 17.0082 82.3658 16.8041 83.4204 16.8096H83.4405Z" fill="#231916"/>
<path d="M108.1 7.9787H102.085V37.7371H108.1V7.9787Z" fill="#231916"/>
<path d="M192.674 15.01C191.418 13.7545 189.936 12.7504 188.307 12.0514C186.601 11.3199 184.764 10.9506 182.91 10.9666H174.912V0.00506592H169.083V24.8079C169.073 26.6543 169.439 28.4834 170.158 30.1826C171.57 33.5396 174.227 36.212 177.567 37.6333C179.276 38.3532 181.111 38.7204 182.964 38.7132C184.773 38.7238 186.566 38.3681 188.236 37.6675C189.906 36.9669 191.418 35.9357 192.684 34.6353C193.933 33.3546 194.932 31.8491 195.627 30.1974C196.342 28.4886 196.709 26.6538 196.709 24.8004C196.709 22.9471 196.342 21.1123 195.627 19.4035C194.928 17.7646 193.926 16.2738 192.674 15.01ZM174.912 16.8196H182.924C183.985 16.814 185.035 17.0254 186.011 17.441C186.956 17.8473 187.817 18.4295 188.547 19.157C189.273 19.8875 189.853 20.7513 190.255 21.7013C190.67 22.6852 190.88 23.7441 190.873 24.8128C190.881 26.9506 190.045 29.0044 188.547 30.5229C187.821 31.2523 186.961 31.8348 186.016 32.2388C184.023 33.0526 181.792 33.0526 179.799 32.2388C178.34 31.6296 177.095 30.5982 176.221 29.2759C175.348 27.9536 174.886 26.4 174.893 24.8128L174.912 16.8196Z" fill="#231916"/>
<path d="M28.2225 10.9472C26.6277 10.9472 25.051 11.2869 23.5964 11.9439C22.1417 12.6008 20.8421 13.5603 19.7833 14.7588C18.2524 13.0301 16.2334 11.8116 13.9956 11.2656C11.7579 10.7197 9.40771 10.8723 7.2585 11.7032C5.10932 12.534 3.26323 14.0036 1.96643 15.916C0.669631 17.8283 -0.0162379 20.0926 0.000291899 22.4067V37.4955H5.80467V22.3131C5.84072 20.8641 6.43712 19.4863 7.46735 18.472C8.49758 17.4577 9.88058 16.8868 11.3228 16.8804C12.7649 16.874 14.1529 17.4326 15.192 18.4377C16.2311 19.4428 16.8397 20.8152 16.8884 22.2637V37.323H22.6978V22.3279C22.6893 20.8514 23.2648 19.432 24.2977 18.382C25.3305 17.3319 26.7361 16.7373 28.2053 16.7288C29.6745 16.7203 31.0868 17.2986 32.1316 18.3366C33.1765 19.3747 33.7682 20.7873 33.7767 22.2637V37.4955H39.5516V22.4067C39.5543 19.3795 38.3639 16.4743 36.2408 14.3268C34.1177 12.1792 31.2347 10.9641 28.2225 10.9472Z" fill="#231916"/>
<path d="M68.4997 19.2505C67.5605 17.095 66.0909 15.2149 64.2292 13.7872C62.3675 12.3595 60.1751 11.4311 57.8587 11.0893C55.5417 10.7474 53.1764 11.0035 50.9851 11.8332C48.7938 12.663 46.8485 14.0392 45.3321 15.8325C43.8157 17.6258 42.7781 19.7772 42.3168 22.0845C41.8555 24.3917 41.9857 26.7789 42.6951 29.0217C43.4045 31.2644 44.6699 33.289 46.3722 34.905C48.0745 36.521 50.1578 37.6753 52.4262 38.2595C53.5487 38.5476 54.7023 38.695 55.8608 38.6983C56.2042 38.6983 56.5477 38.6983 56.8813 38.6589C59.0109 38.5074 61.0747 37.855 62.9071 36.7544C64.7395 35.6537 66.289 34.1357 67.4302 32.3226L67.9601 31.4893L63.1029 28.3235L62.5678 29.152C61.8497 30.2805 60.86 31.2089 59.6906 31.851C58.5206 32.4931 57.2085 32.8283 55.8755 32.8255C55.2034 32.8241 54.5342 32.738 53.8835 32.5691C52.8096 32.2894 51.8065 31.7853 50.9396 31.0898L68.9905 20.3699L68.4997 19.2505ZM60.9197 18.6046L48.0006 26.292C47.791 25.1467 47.8296 23.9694 48.1134 22.8403C48.5544 21.1158 49.5525 19.5871 50.951 18.494C52.3495 17.4008 54.0694 16.8049 55.8412 16.7999C57.6934 16.8022 59.4873 17.4486 60.9197 18.6293V18.6046Z" fill="#231916"/>
<path d="M224.683 19.2505C223.744 17.095 222.275 15.2149 220.413 13.7872C218.551 12.3595 216.359 11.4311 214.042 11.0893C211.726 10.7474 209.36 11.0035 207.169 11.8332C204.977 12.663 203.032 14.0392 201.516 15.8325C200 17.6258 198.962 19.7772 198.501 22.0845C198.039 24.3917 198.169 26.7789 198.879 29.0217C199.588 31.2644 200.854 33.289 202.556 34.905C204.258 36.521 206.341 37.6753 208.61 38.2595C209.74 38.5502 210.902 38.6976 212.069 38.6983C212.408 38.6983 212.751 38.6983 213.09 38.6589C215.219 38.5074 217.283 37.855 219.116 36.7544C220.948 35.6537 222.497 34.1357 223.639 32.3226L224.169 31.4893L219.262 28.3433L218.727 29.1717C218.009 30.2997 217.018 31.2275 215.849 31.8695C214.679 32.5116 213.367 32.8472 212.035 32.8453C211.363 32.8438 210.693 32.7577 210.043 32.5888C208.969 32.3074 207.966 31.8036 207.098 31.1096L225.174 20.3601L224.683 19.2505ZM217.103 18.6046L204.185 26.292C203.975 25.1467 204.013 23.9694 204.297 22.8403C204.738 21.1166 205.735 19.5886 207.133 18.4955C208.53 17.4024 210.249 16.806 212.02 16.7999C212.695 16.8016 213.368 16.8877 214.022 17.0563C215.149 17.3408 216.2 17.8693 217.103 18.6046Z" fill="#231916"/>
<path d="M122.221 17.5448C124.07 16.4425 126.278 16.1215 128.362 16.652C130.446 17.1825 132.235 18.5213 133.339 20.3752L133.864 21.248L138.844 18.0478L138.354 17.2194C137.149 15.2516 135.482 13.6113 133.499 12.4423C131.516 11.2733 129.278 10.6115 126.981 10.515C124.684 10.4184 122.399 10.8901 120.325 11.8885C118.252 12.887 116.455 14.3817 115.091 16.2415C113.727 18.1013 112.838 20.2691 112.502 22.5547C112.167 24.8404 112.394 27.1739 113.166 29.3504C113.937 31.5268 115.229 33.4796 116.926 35.0374C118.624 36.5951 120.677 37.7101 122.903 38.2845C124.053 38.5787 125.235 38.7278 126.421 38.7282C126.765 38.7282 127.118 38.7282 127.462 38.6888C129.658 38.5344 131.786 37.8558 133.67 36.7092C135.552 35.5626 137.137 33.9811 138.29 32.0961L138.805 31.2628L133.84 28.0724L133.31 28.9255C132.588 30.1161 131.572 31.0991 130.361 31.779C129.149 32.4589 127.784 32.8127 126.397 32.8062C125.705 32.8055 125.016 32.7177 124.346 32.5449C122.783 32.142 121.373 31.2824 120.296 30.0747C119.219 28.867 118.523 27.3654 118.295 25.7598C118.067 24.1542 118.318 22.5168 119.016 21.0545C119.714 19.5922 120.828 18.3709 122.216 17.5448H122.221Z" fill="#231916"/>
<path d="M160.487 25.8583C160.487 27.7206 159.751 29.5065 158.441 30.8234C157.13 32.1402 155.353 32.88 153.5 32.88C151.647 32.88 149.87 32.1402 148.56 30.8234C147.249 29.5065 146.513 27.7206 146.513 25.8583V11.1837H140.704V25.8583C140.671 27.5719 140.977 29.2749 141.607 30.8678C142.236 32.4607 143.176 33.9115 144.37 35.1352C145.564 36.3588 146.989 37.3309 148.561 37.9945C150.133 38.6582 151.822 39 153.527 39C155.233 39 156.921 38.6582 158.493 37.9945C160.065 37.3309 161.49 36.3588 162.684 35.1352C163.878 33.9115 164.818 32.4607 165.447 30.8678C166.076 29.2749 166.384 27.5719 166.35 25.8583V11.1837H160.487V25.8583Z" fill="#231916"/>
</svg>
