<svg width="244" height="39" viewBox="0 0 244 39" fill="none" xmlns="http://www.w3.org/2000/svg">
<path d="M133.002 27.3853C130.699 26.7394 128.7 25.9472 128.7 23.5706C128.7 21.1941 130.431 20.0241 132.356 20.0241C135.257 20.0241 137.122 22.1569 138.474 24.9234H138.523L138.413 19.4269C138.036 19.8047 137.633 20.3166 136.817 20.3166C135.891 20.3166 134.489 19.4269 132.356 19.4269C128.895 19.4269 126.165 21.5109 126.165 24.8138C126.165 28.5431 129.005 29.5547 131.771 30.3834C134.392 31.1634 136.939 31.8459 136.939 34.5028C136.939 36.9647 135.147 38.3175 132.832 38.3175C130.126 38.3175 127.603 36.2944 126.007 32.8575H125.958L126.311 38.9147C126.848 38.4028 127.335 37.9641 128.066 37.9641C129.151 37.9641 130.662 38.9147 132.832 38.9147C136.293 38.9147 139.571 37.1597 139.571 33.3938C139.571 29.1159 136.049 28.275 133.027 27.3853H133.002Z" fill="#231815"/>
<path d="M161.972 35.1731V23.1075C161.972 21.3159 162.24 20.3775 163.52 19.7559V19.7072H158.779L152.88 33.9909L146.652 19.7072H141.57V19.7559C142.838 20.3775 143.118 21.3281 143.118 23.1075V34.7222C143.118 36.7453 142.411 37.964 141.083 38.5856V38.6343H145.982V38.5856C144.605 37.9884 143.898 36.7575 143.898 34.649V21.5475L151.527 38.9147H151.637L158.779 21.5475V35.1853C158.779 36.9768 158.316 37.964 157.048 38.5856V38.6343H163.727V38.5856C162.459 37.964 161.972 36.9647 161.972 35.1853V35.1731Z" fill="#231815"/>
<path d="M114.367 19.4269C109.176 19.4269 104.947 23.4853 104.947 29.1647C104.947 34.8441 109.163 38.9025 114.367 38.9025C119.572 38.9025 123.788 34.8441 123.788 29.1647C123.788 23.4853 119.572 19.4269 114.367 19.4269ZM114.367 38.3175C110.467 38.3175 108.603 34.6125 108.603 29.1769C108.603 23.7413 110.467 20.0363 114.367 20.0363C118.267 20.0363 120.132 23.7413 120.132 29.1769C120.132 34.6125 118.267 38.3175 114.367 38.3175Z" fill="#231815"/>
<path d="M96.7444 37.2572C93.0881 37.2572 90.0047 34.1738 90.0047 28.8722C90.0047 23.8631 92.3081 20.0484 96.3665 20.0484C99.2672 20.0484 101.485 22.3275 102.643 25.5206H102.692L102.497 19.4269C102.058 19.8656 101.583 20.3531 100.717 20.3531C99.8522 20.3531 98.475 19.4269 96.1959 19.4269C90.7847 19.4269 86.3728 23.5706 86.3728 29.25C86.3728 34.9294 90.3825 38.9147 95.6597 38.9147C99.6937 38.9147 102.448 36.6966 103.179 33.1744L103.045 33.1256C101.717 36.1847 99.584 37.2694 96.7444 37.2694V37.2572Z" fill="#231815"/>
<path d="M175.463 37.9275H170.869V29.3231H174.281C176.475 29.3231 177.206 29.5425 178.096 32.0287H178.145V25.5937H178.096C177.206 28.1165 176.475 28.6284 174.281 28.6284H170.869V20.4018H174.952C178.096 20.4018 179.583 21.7303 181.045 24.3506H181.094L180.168 19.4756C179.839 19.6706 179.303 19.695 178.681 19.695H166.067V19.7437C167.334 20.3653 167.615 21.3159 167.615 23.0953V35.2096C167.615 37.0012 167.347 37.9396 166.067 38.5612V38.61H180.984L181.85 33.4668H181.801C180.338 36.2821 178.693 37.9031 175.463 37.9031V37.9275Z" fill="#231815"/>
<path d="M199.4 19.695H185.25C184.628 19.695 184.092 19.6706 183.763 19.4756L182.837 25.2646H182.886C184.811 22.0471 185.786 20.3653 188.784 20.3653H190.673V35.3803C190.673 37.1718 190.32 37.9396 189.053 38.5612V38.61H195.573V38.5612C194.305 37.9396 193.952 37.1597 193.952 35.3803V20.3653H195.841C198.839 20.3653 199.814 22.0471 201.715 25.2646H201.764L200.838 19.4756C200.509 19.6706 199.973 19.695 199.375 19.695H199.4Z" fill="#231815"/>
<path d="M237.376 27.3853C235.072 26.7394 233.074 25.9472 233.074 23.5706C233.074 21.1941 234.804 20.0241 236.73 20.0241C239.631 20.0241 241.495 22.1569 242.848 24.9234H242.897L242.787 19.4269C242.409 19.8047 242.007 20.3166 241.191 20.3166C240.277 20.3166 238.863 19.4269 236.73 19.4269C233.269 19.4269 230.539 21.5109 230.539 24.8138C230.539 28.5431 233.378 29.5547 236.145 30.3834C238.765 31.1634 241.312 31.8459 241.312 34.5028C241.312 36.9647 239.521 38.3175 237.205 38.3175C234.5 38.3175 231.977 36.2944 230.38 32.8575H230.332L230.685 38.9147C231.221 38.4028 231.709 37.9641 232.44 37.9641C233.525 37.9641 235.036 38.9147 237.205 38.9147C240.667 38.9147 243.945 37.1597 243.945 33.3938C243.945 29.1159 240.423 28.275 237.4 27.3853H237.376Z" fill="#231815"/>
<path d="M221.642 37.2572C217.986 37.2572 214.902 34.1738 214.902 28.8722C214.902 23.8631 217.206 20.0484 221.264 20.0484C224.165 20.0484 226.383 22.3275 227.541 25.5206H227.589L227.394 19.4269C226.956 19.8656 226.48 20.3531 225.603 20.3531C224.725 20.3531 223.36 19.4269 221.081 19.4269C215.67 19.4269 211.258 23.5706 211.258 29.25C211.258 34.9294 215.268 38.9147 220.545 38.9147C224.579 38.9147 227.333 36.6966 228.065 33.1744L227.931 33.1256C226.602 36.1847 224.469 37.2694 221.63 37.2694L221.642 37.2572Z" fill="#231815"/>
<path d="M203.19 19.7437C204.458 20.3653 204.738 21.3159 204.738 23.0953V35.2218C204.738 37.0134 204.47 37.9518 203.19 38.5734V38.6221H209.527V38.5734C208.26 37.9518 207.98 37.0134 207.98 35.2218V23.0953C207.98 21.3037 208.248 20.3653 209.527 19.7437V19.6949H203.19V19.7437Z" fill="#231815"/>
<path d="M33.5766 1.18218C35.4656 1.87687 36.4162 3.04686 36.4162 4.63124C36.4162 5.84999 35.9166 6.89812 35.4291 7.95843L25.8619 27.6534L11.3344 0.755615H0L21.0356 39H22.0838L37.6472 7.9828C40.0359 3.22968 42.8878 2.63249 44.5941 2.29124V0.755615H33.5766V1.18218Z" fill="#231815"/>
<path d="M74.4047 0.755625H52.7841V0.901875V32.0897C52.7841 35.5875 52.0163 37.1231 49.5178 38.3419V38.6222H65.1909V38.3419C62.6925 37.1231 61.9247 35.5875 61.9247 32.0897V2.51062H67.6284C73.515 2.51062 75.2091 4.27781 78.975 10.5909H79.4259L77.2931 0C76.6594 0.43875 75.7575 0.755625 74.4291 0.755625H74.4047Z" fill="#231815"/>
</svg>
