<svg width="856" height="157" viewBox="0 0 856 157" fill="none" xmlns="http://www.w3.org/2000/svg">
<path fill-rule="evenodd" clip-rule="evenodd" d="M796.635 157.003C776.339 157.003 761.335 150.117 751.622 136.344L772.386 100.379C773.037 108.548 774.669 115.245 777.281 120.47C780.906 127.284 787.357 130.691 796.635 130.691C805.913 130.691 812.292 127.284 815.771 120.47C819.395 113.512 821.207 103.871 821.207 91.5487V65.2366C821.207 53.0591 819.395 43.5635 815.771 36.7499C814.776 34.7605 813.544 33.0555 812.076 31.6348L826.379 6.86064C832.359 10.2235 837.376 14.8228 841.431 20.6583C851.144 34.4304 856 53.7115 856 78.5014C856 103.291 851.071 122.572 841.431 136.344C831.79 150.117 816.931 157.003 796.635 157.003ZM821.095 4.3126C814.061 1.43753 805.908 0 796.635 0C776.339 0 761.335 6.88609 751.622 20.6583C742.054 34.4304 737.27 53.7115 737.27 78.5014C737.27 100.067 740.89 117.463 748.131 130.691L772.062 89.2398V65.2366C772.062 53.0591 773.802 43.5635 777.281 36.7499C780.906 29.7914 787.357 26.3121 796.635 26.3121C800.728 26.3121 804.256 26.9892 807.221 28.3434L821.095 4.3126Z" fill="#051537"/>
<path d="M563.171 154.394V2.60986H621.884C629.277 2.60986 635.873 3.76962 641.672 6.08914C647.471 8.26369 652.328 11.453 656.242 15.6572C660.301 19.8613 663.345 24.9353 665.375 30.8791C667.404 36.8228 668.419 43.4915 668.419 50.8849C668.419 58.2784 667.404 64.947 665.375 70.8908C663.345 76.8346 660.301 81.9086 656.242 86.1127C652.328 90.3168 647.471 93.5787 641.672 95.8982C635.873 98.0727 629.277 99.16 621.884 99.16H596.007V154.394H563.171ZM596.007 72.8479H613.62C621.304 72.8479 626.595 71.3982 629.495 68.4988C632.539 65.5994 634.061 60.8154 634.061 54.1468V47.6231C634.061 40.9545 632.539 36.1705 629.495 33.2711C626.595 30.3717 621.304 28.9219 613.62 28.9219H596.007V72.8479Z" fill="#051537"/>
<path d="M456.487 154.394L441.917 91.5491H410.604L396.034 154.394H362.981L404.08 2.60986H450.181L491.28 154.394H456.487ZM427.13 34.1409H425.391L421.839 47.9312L410.604 91.5491H441.917L430.682 47.9312L427.13 34.1409Z" fill="#051537"/>
<path d="M221.719 2.60986V98.7251C221.719 103.509 221.864 107.931 222.154 111.99C222.589 115.904 223.459 119.238 224.764 121.993C226.213 124.747 228.316 126.922 231.07 128.516C233.824 129.966 237.594 130.691 242.378 130.691C247.162 130.691 250.931 129.966 253.685 128.516C256.44 126.922 258.469 124.747 259.774 121.993C261.224 119.238 262.094 115.904 262.384 111.99C262.818 107.931 263.036 103.509 263.036 98.7251V2.60986H295.654V94.376C295.654 104.814 294.929 113.947 293.48 121.775C292.175 129.604 289.565 136.127 285.651 141.346C281.737 146.565 276.301 150.479 269.342 153.089C262.384 155.698 253.395 157.003 242.378 157.003C231.36 157.003 222.372 155.698 215.413 153.089C208.455 150.479 203.018 146.565 199.104 141.346C195.19 136.127 192.508 129.604 191.058 121.775C189.753 113.947 189.101 104.814 189.101 94.376V2.60986H221.719Z" fill="#051537"/>
<path d="M81.7632 132.865H79.8061C78.5014 136.055 76.9067 139.099 75.0221 141.998C73.1375 144.898 70.8179 147.507 68.0635 149.827C65.3091 152.001 62.0472 153.741 58.278 155.046C54.6538 156.35 50.5221 157.003 45.8831 157.003C38.4896 157.003 31.8934 155.263 26.0946 151.784C20.4408 148.305 15.6568 143.231 11.7426 136.562C7.82839 129.893 4.8565 121.775 2.82692 112.207C0.942305 102.639 0 91.8386 0 79.8061C0 54.0014 4.71153 34.2855 14.1346 20.6583C23.5577 6.88609 38.1272 0 57.8431 0C65.6715 0 72.5576 1.08728 78.5014 3.26183C84.4451 5.29141 89.5191 8.2633 93.7232 12.1775C98.0723 15.9467 101.624 20.5133 104.379 25.8772C107.133 31.2411 109.308 37.1849 110.902 43.7085L80.4585 51.102C79.5886 47.9127 78.5738 44.8683 77.4141 41.9689C76.3993 38.9245 75.0221 36.2425 73.2824 33.923C71.5428 31.6035 69.3682 29.7914 66.7588 28.4866C64.1493 27.0369 60.96 26.3121 57.1907 26.3121C48.9274 26.3121 43.0561 29.7189 39.5769 36.5325C36.2425 43.3461 34.5754 52.9141 34.5754 65.2366V90.0265C34.5754 102.349 36.3875 112.207 40.0118 119.6C43.781 126.994 50.3771 130.691 59.8002 130.691C67.1937 130.691 72.7025 128.516 76.3268 124.167C79.9511 119.818 81.7632 114.237 81.7632 107.423V96.3327H55.886V73.2824H110.902V146.465L81.7632 154.393V132.865Z" fill="#051537"/>
</svg>
